<svg id="visual" viewBox="0 0 900 450" width="900" height="450" xmlns="http://www.w3.org/2000/svg" xmlns:xlink="http://www.w3.org/1999/xlink" version="1.1"><rect x="0" y="0" width="900" height="450" fill="#374151"></rect><defs><linearGradient id="grad1_0" x1="50%" y1="100%" x2="100%" y2="0%"><stop offset="10%" stop-color="#374151" stop-opacity="1"></stop><stop offset="90%" stop-color="#374151" stop-opacity="1"></stop></linearGradient></defs><defs><linearGradient id="grad2_0" x1="0%" y1="100%" x2="50%" y2="0%"><stop offset="10%" stop-color="#374151" stop-opacity="1"></stop><stop offset="90%" stop-color="#374151" stop-opacity="1"></stop></linearGradient></defs><g transform="translate(900, 450)"><path d="M-405 0C-375.2 -42.3 -345.4 -84.6 -330.7 -137C-316.1 -189.4 -316.7 -251.8 -286.4 -286.4C-256.1 -320.9 -194.9 -327.6 -142 -342.8C-89.1 -357.9 -44.5 -381.4 0 -405L0 0Z" fill="#ea580c"></path></g><g transform="translate(0, 0)"><path d="M405 0C361.5 36.1 318.1 72.2 305.8 126.7C293.5 181.1 312.4 253.8 286.4 286.4C260.4 318.9 189.5 311.2 134.3 324.3C79.1 337.3 39.6 371.2 0 405L0 0Z" fill="#ea580c"></path></g></svg>