<svg id="Layer_1" data-name="Layer 1" xmlns="http://www.w3.org/2000/svg" viewBox="0 0 181.48 74.47"><defs><style>.cls-1{fill:#636b6f;}.cls-2{fill:none;stroke:#e85b0d;stroke-miterlimit:10;stroke-width:3px;}.cls-3{fill:#ec673b;}</style></defs><title>200x200_website</title><path class="cls-1" d="M108.24,133.79" transform="translate(-5.13 -63.37)"/><path class="cls-2" d="M121.05,94.83" transform="translate(-5.13 -63.37)"/><path class="cls-3" d="M21,94.13a16.36,16.36,0,0,1-.42-2.37c-.09-.79-.13-1.58-.16-2.37l.13.32c-.58-.63-1.14-1.29-1.67-2a16.18,16.18,0,0,1-1.45-2.18,15.58,15.58,0,0,1,2,1.64c.64.59,1.24,1.2,1.82,1.85l.12.14v.18c0,.79,0,1.58-.08,2.38A15.16,15.16,0,0,1,21,94.13Z" transform="translate(-5.13 -63.37)"/><path class="cls-3" d="M19.92,86.56a3.51,3.51,0,0,1-3.76,2.93,3.51,3.51,0,0,1-1.59-6.43,3.49,3.49,0,0,1,5.35,3.5Zm0,0a3,3,0,0,0-.62-2.37,3.05,3.05,0,0,0-2.1-1.1,3,3,0,1,0,2.72,3.47Z" transform="translate(-5.13 -63.37)"/><path class="cls-3" d="M60.06,63.63c-4.82.21-9.64.46-14.41,1a50.41,50.41,0,0,0-7,1.13,23.93,23.93,0,0,0-6.4,2.74,16.47,16.47,0,0,0-2.71,2.11,13.94,13.94,0,0,0-2.19,2.58,16.84,16.84,0,0,0-2,6.48c-.41,2.35-.73,4.77-1.27,7.14l-1.55,7.11-.08.36-.27.18c-.68.44-1.35.9-2.05,1.31s-1.51.68-2.18,1a19.28,19.28,0,0,0-2,1A11.27,11.27,0,0,0,14,98.75a17.6,17.6,0,0,0-5.31,6.88A34.23,34.23,0,0,0,7,109.79a25.25,25.25,0,0,0-.94,4.38c-.37,3-.56,6.18,1.32,8.69v0l1,1.12-1.15-1v0a8,8,0,0,1-1.91-4.2,21.3,21.3,0,0,1-.16-4.65,22.28,22.28,0,0,1,.71-4.63A33,33,0,0,1,7.43,105a24.93,24.93,0,0,1,2.25-4.15A14.28,14.28,0,0,1,13,97.37a13.06,13.06,0,0,1,2-1.28A22.17,22.17,0,0,1,17.14,95c.72-.33,1.4-.59,2-.94s1.19-.79,1.79-1.18l-.35.54,1.47-7c.5-2.34.86-4.71,1.29-7.1a34.73,34.73,0,0,1,.79-3.63,12.17,12.17,0,0,1,1.6-3.55,15.94,15.94,0,0,1,2.55-2.86,17.07,17.07,0,0,1,3-2.27,24.42,24.42,0,0,1,7-2.68,45.33,45.33,0,0,1,7.29-.82c2.42-.14,4.84-.13,7.26-.11S57.65,63.47,60.06,63.63Z" transform="translate(-5.13 -63.37)"/><path class="cls-3" d="M62.85,68.34c-6.44.19-12.84.73-19.21,1.39-1.59.19-3.18.39-4.72.66a12.36,12.36,0,0,0-4.24,1.47,9.94,9.94,0,0,0-3.26,2.87,11.37,11.37,0,0,0-1.58,4.11c-.33,1.52-.56,3.1-.79,4.68-.11.78-.23,1.61-.32,2.36a2.88,2.88,0,0,0,.1,1.62c.12.13.12.14.42.19a5.06,5.06,0,0,0,1,0c.75-.07,1.55-.2,2.33-.33,1.58-.27,3.17-.53,4.79-.73L42.19,86l2.43-.14,1.21-.07h1.22c3.24.08,6.46.12,9.67.38-6.44.39-12.85.54-19.09,2-1.57.28-3.14.61-4.73.92-.8.15-1.59.3-2.43.41a6.16,6.16,0,0,1-1.39.07,2.69,2.69,0,0,1-.89-.22,2.09,2.09,0,0,1-.81-.61A2.74,2.74,0,0,1,26.77,87a8.61,8.61,0,0,1,0-1.36c.09-.85.2-1.61.3-2.42.22-1.61.43-3.21.78-4.84a13.1,13.1,0,0,1,1.92-4.81,11.49,11.49,0,0,1,4-3.4,14.36,14.36,0,0,1,4.87-1.55c1.63-.25,3.24-.37,4.86-.48,3.23-.21,6.46-.28,9.68-.29S59.63,68.09,62.85,68.34Z" transform="translate(-5.13 -63.37)"/><path class="cls-3" d="M26.43,108a6.59,6.59,0,1,1-1.81-4.53A6.58,6.58,0,0,1,26.43,108Zm0,0a6.08,6.08,0,0,0-6.33-6.08,6.06,6.06,0,0,0-4.17,1.91A6.08,6.08,0,0,0,20.1,114.1a6.11,6.11,0,0,0,4.42-1.65A6.2,6.2,0,0,0,26.43,108Z" transform="translate(-5.13 -63.37)"/><path class="cls-3" d="M24.53,108a4.71,4.71,0,0,1-4.43,4.68,4.8,4.8,0,0,1-3.44-1.24A4.69,4.69,0,1,1,24.53,108Zm0,0a4.19,4.19,0,0,0-4.43-4.18,4.19,4.19,0,0,0,0,8.36A4.19,4.19,0,0,0,24.53,108Z" transform="translate(-5.13 -63.37)"/><path class="cls-3" d="M26,94a17.09,17.09,0,0,0-4,.25,17.43,17.43,0,0,0-3.87,1.16,18.62,18.62,0,0,0-3.52,2,22.42,22.42,0,0,0-3,2.69l-.24-.41a32,32,0,0,1,8.49-1.09,22.7,22.7,0,0,1,4.33.43,23.29,23.29,0,0,1,4.14,1.35,21.32,21.32,0,0,1,7.17,4.94,24.19,24.19,0,0,1,4.7,7.31,27.26,27.26,0,0,1,1.37,4.12l.12.49h0s0,.06-.08-.15a.62.62,0,0,0-1,0,.51.51,0,0,0-.11.35c0,.08,0,0,0,0l-.05-.24-.25-1c-.17-.68-.36-1.35-.56-2a75.16,75.16,0,0,0-2.86-7.94,37.19,37.19,0,0,0-4.07-7.39,15.36,15.36,0,0,0-2.9-3.07A7.69,7.69,0,0,0,26,94Zm0,0a7.77,7.77,0,0,1,3.86,1.65,17.74,17.74,0,0,1,3,3,43.37,43.37,0,0,1,4.45,7.25,76.37,76.37,0,0,1,3.31,7.86c.23.68.46,1.35.68,2l.32,1,.07.28a1.57,1.57,0,0,1,0,.2.68.68,0,0,1-.11.42.57.57,0,0,1-.33.26.62.62,0,0,1-.62-.23,1.37,1.37,0,0,1-.1-.17l0,0-.16-.54A29.6,29.6,0,0,0,39,113.16a24.82,24.82,0,0,0-4.54-6.83,21.36,21.36,0,0,0-6.63-4.75c-5-2.49-10.82-2.55-16.29-1.43l-.92.19.68-.59a23.07,23.07,0,0,1,3.18-2.59,20.72,20.72,0,0,1,3.63-1.86A18.86,18.86,0,0,1,26,94Z" transform="translate(-5.13 -63.37)"/><path class="cls-3" d="M8.44,124a30.67,30.67,0,0,1,7.22-4.38,32.44,32.44,0,0,1,16.65-2.54,30.65,30.65,0,0,1,8.19,2c-1.37-.32-2.73-.63-4.11-.82a36.3,36.3,0,0,0-4.15-.45,40,40,0,0,0-16.3,2.48A34.73,34.73,0,0,0,12.12,122C10.86,122.57,9.65,123.27,8.44,124Z" transform="translate(-5.13 -63.37)"/><path class="cls-3" d="M16.53,121.65c.13.85.2,1.71.26,2.57v0l.54,3.79a24.38,24.38,0,0,0,.74,3.62,5.18,5.18,0,0,0,2.31,2.49,15.37,15.37,0,0,0,3.52,1.33,9.28,9.28,0,0,1-3.91-.56A5.46,5.46,0,0,1,17,132a15.77,15.77,0,0,1-.75-3.91,29.76,29.76,0,0,1-.08-3.89v0C16.25,123.35,16.36,122.5,16.53,121.65Z" transform="translate(-5.13 -63.37)"/><path class="cls-3" d="M32.52,121.65c.17.85.28,1.7.38,2.56v0a29.76,29.76,0,0,1-.08,3.89,15.75,15.75,0,0,1-.74,3.91,5.51,5.51,0,0,1-3,2.84,9.28,9.28,0,0,1-3.91.56,15.37,15.37,0,0,0,3.52-1.33A5.2,5.2,0,0,0,31,131.61a25.75,25.75,0,0,0,.73-3.62l.54-3.79v0C32.32,123.36,32.39,122.5,32.52,121.65Z" transform="translate(-5.13 -63.37)"/><path class="cls-3" d="M75.89,100.82l-.57,3H77.6l-.45,2.32H74.87l-.81,4.12a7,7,0,0,0-.16,1.27.81.81,0,0,0,.93.92,4.74,4.74,0,0,0,.83-.05l-.36,2.41a6.27,6.27,0,0,1-1.85.23c-1.84,0-2.74-1-2.74-2.39a9.34,9.34,0,0,1,.22-1.94l.88-4.57H70.44l.45-2.32h1.37l.38-2Z" transform="translate(-5.13 -63.37)"/><path class="cls-3" d="M81.79,115a4,4,0,0,1-4.28-4.32c0-3.76,2.48-7.14,6.21-7.14a4,4,0,0,1,4.22,4.34c0,3.83-2.48,7.12-6.13,7.12Zm.4-2.39c1.65,0,2.57-2.92,2.57-4.82,0-.94-.36-1.87-1.46-1.87-1.69,0-2.62,2.91-2.62,4.67,0,1.15.45,2,1.49,2Z" transform="translate(-5.13 -63.37)"/><path class="cls-1" d="M100.53,114.79l3-15.88h3.1l-3,15.88Z" transform="translate(-5.13 -63.37)"/><path class="cls-1" d="M112.89,114.79c0-.63.09-1.33.14-2.08H113a3.94,3.94,0,0,1-3.43,2.3c-1.87,0-3.06-1.48-3.06-3.67,0-3.58,2.23-7.79,7.43-7.79a12.2,12.2,0,0,1,3.43.52l-1.17,5.87a26.94,26.94,0,0,0-.45,4.85Zm1-8.79a3,3,0,0,0-.79-.09c-2,0-3.4,2.89-3.4,4.8,0,1.06.34,1.78,1.17,1.78s2-1.15,2.43-3.63Z" transform="translate(-5.13 -63.37)"/><path class="cls-1" d="M117.78,114.79l1.42-7.44c.24-1.35.42-2.56.58-3.58h2.73l-.18,1.71h0a4.35,4.35,0,0,1,3.58-1.93c1.74,0,2.64,1.1,2.64,2.84a12,12,0,0,1-.2,1.91l-1.24,6.49H124l1.19-6.31a7.19,7.19,0,0,0,.11-1.22c0-.69-.24-1.19-1-1.19-.95,0-2.08,1.22-2.5,3.54l-1,5.18Z" transform="translate(-5.13 -63.37)"/><path class="cls-1" d="M129.65,114.79l1.41-7.44c.25-1.35.43-2.56.59-3.58h2.73l-.18,1.71h0a4.35,4.35,0,0,1,3.58-1.93c1.74,0,2.64,1.1,2.64,2.84a11,11,0,0,1-.21,1.91L139,114.79h-3.11l1.19-6.31a7.19,7.19,0,0,0,.11-1.22c0-.69-.24-1.19-1-1.19-.95,0-2.08,1.22-2.51,3.54l-1,5.18Z" transform="translate(-5.13 -63.37)"/><path class="cls-1" d="M150.21,114.2a9.26,9.26,0,0,1-3.83.79c-3,0-4.46-1.78-4.46-4.48,0-3.34,2.23-7,6.08-7,2.16,0,3.54,1.3,3.56,3.2,0,2.88-2.64,3.94-6.64,3.82a2.42,2.42,0,0,0,.31,1.18,2.3,2.3,0,0,0,1.94.81,6.17,6.17,0,0,0,2.84-.66Zm-1.53-7.39a1,1,0,0,0-1.08-.94,2.7,2.7,0,0,0-2.39,2.41c2.21,0,3.47-.39,3.47-1.44Z" transform="translate(-5.13 -63.37)"/><path class="cls-1" d="M152,114.79l1.31-6.83c.27-1.53.43-3.22.56-4.19h2.68c0,.7-.11,1.4-.2,2.14h.09a3.91,3.91,0,0,1,3.26-2.36l.57,0-.61,3.06a3.63,3.63,0,0,0-.5,0c-1.8,0-2.83,1.71-3.22,3.78l-.83,4.4Z" transform="translate(-5.13 -63.37)"/><path class="cls-3" d="M163.88,114.79l2.88-15.18h3.45l1.73,5.85c.56,2,.92,3.49,1.22,5.05h0a54.07,54.07,0,0,1,.77-5.86l1-5h2.83l-2.88,15.18h-3.06L170,108.86a42,42,0,0,1-1.28-5.22h-.07c-.16,1.51-.52,3.76-1,6.21l-.92,4.94Z" transform="translate(-5.13 -63.37)"/><path class="cls-3" d="M180.66,99.61h3.11l-2.37,12.45h5.2l-.51,2.73h-8.32Z" transform="translate(-5.13 -63.37)"/><path class="cls-3" d="M49.38,111l-1.65,3.81H44.49l7-15.18h3.89l1.29,15.18H53.5L53.3,111Zm3.85-2.34-.2-3.29c0-.88-.05-2.21-.09-3.2h0c-.38,1-.83,2.32-1.21,3.18l-1.42,3.31Z" transform="translate(-5.13 -63.37)"/><path class="cls-3" d="M69.33,103.77l-1.39,7.44c-.27,1.35-.43,2.56-.59,3.58H64.63l.15-1.72h0A4.39,4.39,0,0,1,61.23,115c-1.67,0-2.6-1-2.6-2.93a11.79,11.79,0,0,1,.23-2.09l1.19-6.22h3.11l-1.15,6a8.79,8.79,0,0,0-.18,1.56c0,.65.27,1.15,1,1.15,1,0,2-1.22,2.37-3.22l1-5.48Z" transform="translate(-5.13 -63.37)"/><path class="cls-3" d="M186.2,121.05c-6,.68-12.1,1.21-18.16,1.7s-12.14.83-18.22,1.12c-12.16.58-24.33.75-36.5.64S89,123.84,76.84,123s-24.25-2.1-36.3-3.74c6.05.6,12.1,1.19,18.16,1.67s12.13.95,18.19,1.3c12.14.72,24.29,1.19,36.44,1.31s24.31,0,36.46-.4S174.08,122,186.2,121.05Z" transform="translate(-5.13 -63.37)"/><path class="cls-1" d="M91.69,98.38a19.21,19.21,0,0,1,4-.39A7.08,7.08,0,0,1,100,99.15a4.14,4.14,0,0,1,1.56,3.35,6.11,6.11,0,0,1-2.23,4.78,8.09,8.09,0,0,1-5,1.53c-.47,0-.92,0-1.24-.07l-1.16,6.05H88.57Zm1.91,7.54a5.25,5.25,0,0,0,1.14.09,3.21,3.21,0,0,0,3.37-3.22c0-1.46-1-2.05-2.3-2.05a4.93,4.93,0,0,0-1.24.1Z" transform="translate(-5.13 -63.37)"/><path class="cls-1" d="M81.71,134.77" transform="translate(-5.13 -63.37)"/><path class="cls-1" d="M59,129.71a9.49,9.49,0,0,1,1.57-.13,2.89,2.89,0,0,1,2.06.68,2.45,2.45,0,0,1,.72,1.89,4.09,4.09,0,0,1-1.3,3.1,4,4,0,0,1-2.68.77,8.11,8.11,0,0,1-1.53-.12Zm.3,5.21a3.68,3.68,0,0,0,.51,0,1.92,1.92,0,0,0,1.56-.78,3.48,3.48,0,0,0,.6-2,1.3,1.3,0,0,0-1.39-1.49,2,2,0,0,0-.47,0Z" transform="translate(-5.13 -63.37)"/><path class="cls-1" d="M67.12,135.74a3.71,3.71,0,0,1-1.58.33,1.69,1.69,0,0,1-1.84-1.88,2.73,2.73,0,0,1,2.51-2.92,1.33,1.33,0,0,1,1.46,1.34c0,1.21-1.08,1.66-2.74,1.61a1,1,0,0,0,.13.49.93.93,0,0,0,.8.34,2.5,2.5,0,0,0,1.17-.27Zm-.64-3.1a.39.39,0,0,0-.44-.4c-.54,0-.88.51-1,1,.91,0,1.43-.17,1.43-.61Z" transform="translate(-5.13 -63.37)"/><path class="cls-1" d="M72,129.33l-.53,2.6h0a1.65,1.65,0,0,1,1.3-.66c.9,0,1.24.81,1.24,1.53a3,3,0,0,1-2.85,3.28c-1,0-1.48-.43-1.48-1.2a4.52,4.52,0,0,1,.09-.78l.93-4.77Zm-1,4.79a2.71,2.71,0,0,0,0,.51.43.43,0,0,0,.45.48c.74,0,1.23-1.23,1.23-2,0-.43-.14-.76-.52-.76s-.85.48-1,1.19Z" transform="translate(-5.13 -63.37)"/><path class="cls-1" d="M77.91,135.74a3.63,3.63,0,0,1-1.57.33,1.69,1.69,0,0,1-1.84-1.88,2.73,2.73,0,0,1,2.5-2.92,1.33,1.33,0,0,1,1.47,1.34c0,1.21-1.08,1.66-2.74,1.61a1,1,0,0,0,.13.49.93.93,0,0,0,.8.34,2.5,2.5,0,0,0,1.17-.27Zm-.63-3.1a.39.39,0,0,0-.44-.4c-.54,0-.88.51-1,1,.91,0,1.43-.17,1.43-.61Z" transform="translate(-5.13 -63.37)"/><path class="cls-1" d="M78.83,134.82a2.2,2.2,0,0,0,1,.29c.38,0,.57-.2.57-.45s-.15-.39-.53-.62a1.44,1.44,0,0,1-.84-1.19c0-.93.77-1.58,1.9-1.58a2.38,2.38,0,0,1,1.07.22l-.3.92a1.9,1.9,0,0,0-.79-.17c-.36,0-.6.16-.6.43s.17.36.49.54a1.54,1.54,0,0,1,.92,1.25c0,1-.83,1.62-2,1.61a2.47,2.47,0,0,1-1.25-.32Z" transform="translate(-5.13 -63.37)"/><path class="cls-1" d="M84.76,130.13l-.23,1.24h.93l-.18,1h-.94L84,134.07a2.76,2.76,0,0,0-.07.53.33.33,0,0,0,.38.38h.35l-.15,1a2.88,2.88,0,0,1-.76.09c-.77,0-1.14-.41-1.14-1a3.71,3.71,0,0,1,.1-.81l.36-1.92h-.57l.19-1h.56l.16-.85Z" transform="translate(-5.13 -63.37)"/><path class="cls-1" d="M88.83,135.74a3.63,3.63,0,0,1-1.57.33,1.69,1.69,0,0,1-1.84-1.88,2.73,2.73,0,0,1,2.5-2.92,1.33,1.33,0,0,1,1.47,1.34c0,1.21-1.08,1.66-2.74,1.61a1,1,0,0,0,.13.49.93.93,0,0,0,.8.34,2.5,2.5,0,0,0,1.17-.27Zm-.63-3.1a.39.39,0,0,0-.44-.4c-.54,0-.88.51-1,1,.91,0,1.43-.17,1.43-.61Z" transform="translate(-5.13 -63.37)"/><path class="cls-1" d="M90.81,137.84l.89-4.76c.11-.55.21-1.26.26-1.73H93.1L93,132h0a1.69,1.69,0,0,1,1.36-.77c.93,0,1.31.79,1.31,1.65,0,1.59-1,3.16-2.48,3.16a1.5,1.5,0,0,1-.76-.17h0l-.36,1.93Zm1.83-2.93a.81.81,0,0,0,.53.19c.72,0,1.21-1.19,1.21-2,0-.35-.12-.72-.51-.72s-.87.54-1,1.34Z" transform="translate(-5.13 -63.37)"/><path class="cls-1" d="M96,136l1.25-6.66h1.29L97.31,136Z" transform="translate(-5.13 -63.37)"/><path class="cls-1" d="M101.13,136c0-.27,0-.56.05-.87h0a1.64,1.64,0,0,1-1.41,1c-.78,0-1.27-.62-1.27-1.54a3.06,3.06,0,0,1,3.07-3.27,5.09,5.09,0,0,1,1.41.22l-.49,2.46a11.89,11.89,0,0,0-.18,2Zm.4-3.69a1.19,1.19,0,0,0-.33,0c-.83,0-1.4,1.21-1.4,2,0,.44.14.74.48.74s.81-.48,1-1.52Z" transform="translate(-5.13 -63.37)"/><path class="cls-1" d="M103.14,136l.59-3.12c.1-.57.18-1.08.24-1.5h1.12l-.07.71h0a1.79,1.79,0,0,1,1.47-.81c.72,0,1.09.46,1.09,1.19a5.7,5.7,0,0,1-.08.8L107,136h-1.29l.5-2.65a4.38,4.38,0,0,0,0-.51c0-.29-.1-.5-.4-.5s-.85.51-1,1.48l-.4,2.18Z" transform="translate(-5.13 -63.37)"/><path class="cls-1" d="M108,136l.58-3.12c.1-.57.18-1.08.24-1.5H110l-.08.71h0a1.8,1.8,0,0,1,1.48-.81c.71,0,1.08.46,1.08,1.19a4.52,4.52,0,0,1-.08.8L111.9,136h-1.28l.49-2.65a2.94,2.94,0,0,0,0-.51c0-.29-.11-.5-.4-.5s-.86.51-1,1.48l-.4,2.18Z" transform="translate(-5.13 -63.37)"/><path class="cls-1" d="M116.51,135.74a3.63,3.63,0,0,1-1.57.33,1.69,1.69,0,0,1-1.84-1.88,2.73,2.73,0,0,1,2.5-2.92,1.33,1.33,0,0,1,1.47,1.34c0,1.21-1.08,1.66-2.74,1.61a1,1,0,0,0,.13.49.93.93,0,0,0,.8.34,2.5,2.5,0,0,0,1.17-.27Zm-.63-3.1a.39.39,0,0,0-.44-.4c-.54,0-.88.51-1,1,.91,0,1.43-.17,1.43-.61Z" transform="translate(-5.13 -63.37)"/><path class="cls-1" d="M117.27,136l.54-2.87c.11-.64.17-1.35.23-1.75h1.1c0,.29,0,.58-.08.89h0a1.6,1.6,0,0,1,1.34-1h.23l-.25,1.29h-.2c-.74,0-1.17.71-1.33,1.58l-.34,1.85Z" transform="translate(-5.13 -63.37)"/><path class="cls-1" d="M123.75,131.37l.13,2c0,.58.05.9.06,1.27h0c.12-.36.24-.68.47-1.25l.89-2.07h1.39L124.33,136H123l-.61-4.62Z" transform="translate(-5.13 -63.37)"/><path class="cls-1" d="M128.31,136.08a1.69,1.69,0,0,1-1.77-1.81,2.77,2.77,0,0,1,2.57-3,1.68,1.68,0,0,1,1.73,1.82,2.74,2.74,0,0,1-2.52,3Zm.16-1c.68,0,1.06-1.23,1.06-2,0-.4-.15-.79-.6-.79-.7,0-1.08,1.22-1.08,2,0,.48.19.85.62.85Z" transform="translate(-5.13 -63.37)"/><path class="cls-1" d="M133.15,136.08a1.68,1.68,0,0,1-1.77-1.81,2.77,2.77,0,0,1,2.56-3,1.68,1.68,0,0,1,1.74,1.82,2.74,2.74,0,0,1-2.53,3Zm.16-1c.68,0,1.06-1.23,1.06-2,0-.4-.15-.79-.6-.79-.7,0-1.08,1.22-1.08,2,0,.48.19.85.61.85Z" transform="translate(-5.13 -63.37)"/><path class="cls-1" d="M136,136l.54-2.87c.11-.64.18-1.35.24-1.75h1.1c0,.29,0,.58-.08.89h0a1.63,1.63,0,0,1,1.35-1h.23l-.25,1.29H139c-.75,0-1.17.71-1.33,1.58L137.3,136Z" transform="translate(-5.13 -63.37)"/><path class="cls-1" d="M145.48,131.37l-.57,3.11c-.11.57-.18,1.08-.24,1.51h-1.13l.07-.72h0a1.83,1.83,0,0,1-1.45.81c-.68,0-1.06-.43-1.06-1.23a4.86,4.86,0,0,1,.09-.88l.49-2.6h1.28l-.47,2.51a3.37,3.37,0,0,0-.08.65c0,.28.12.48.41.48s.82-.51,1-1.35l.42-2.29Z" transform="translate(-5.13 -63.37)"/><path class="cls-1" d="M147.39,131.37l0,2c0,.56,0,1-.06,1.46h0c.15-.49.33-.9.52-1.39l.9-2h1l.08,2a13.85,13.85,0,0,1,0,1.45h0c.13-.51.28-.92.47-1.49l.75-1.95h1.29L150.22,136H149l-.1-1.64a14,14,0,0,1,0-1.46h0a13,13,0,0,1-.52,1.41l-.74,1.69h-1.19l-.36-4.62Z" transform="translate(-5.13 -63.37)"/><path class="cls-1" d="M155.63,136.08a1.68,1.68,0,0,1-1.76-1.81,2.77,2.77,0,0,1,2.56-3,1.68,1.68,0,0,1,1.74,1.82,2.74,2.74,0,0,1-2.53,3Zm.17-1c.68,0,1.06-1.23,1.06-2,0-.4-.15-.79-.6-.79-.7,0-1.08,1.22-1.08,2,0,.48.19.85.61.85Z" transform="translate(-5.13 -63.37)"/><path class="cls-1" d="M161.6,135.86a2.68,2.68,0,0,1-1.14.21,1.68,1.68,0,0,1-1.76-1.82,2.83,2.83,0,0,1,2.8-3,2.58,2.58,0,0,1,.82.13l-.32,1a1.49,1.49,0,0,0-.53-.09A1.61,1.61,0,0,0,160,134.1c0,.6.33.92.8.92a2.08,2.08,0,0,0,.79-.16Z" transform="translate(-5.13 -63.37)"/><path class="cls-1" d="M165.22,135.86a2.73,2.73,0,0,1-1.15.21,1.68,1.68,0,0,1-1.76-1.82,2.83,2.83,0,0,1,2.8-3,2.53,2.53,0,0,1,.82.13l-.31,1a1.58,1.58,0,0,0-.53-.09,1.61,1.61,0,0,0-1.45,1.76c0,.6.33.92.8.92a2.18,2.18,0,0,0,.8-.16Z" transform="translate(-5.13 -63.37)"/><path class="cls-1" d="M168.51,136c0-.27,0-.56.06-.87h0a1.64,1.64,0,0,1-1.41,1c-.77,0-1.26-.62-1.26-1.54a3.06,3.06,0,0,1,3.06-3.27,5,5,0,0,1,1.41.22l-.48,2.46a11.92,11.92,0,0,0-.19,2Zm.4-3.69a1.12,1.12,0,0,0-.32,0c-.84,0-1.4,1.21-1.4,2,0,.44.14.74.48.74s.81-.48,1-1.52Z" transform="translate(-5.13 -63.37)"/><path class="cls-1" d="M170.71,134.82a2.17,2.17,0,0,0,1,.29c.37,0,.56-.2.56-.45s-.15-.39-.53-.62a1.44,1.44,0,0,1-.84-1.19c0-.93.77-1.58,1.9-1.58a2.38,2.38,0,0,1,1.07.22l-.3.92a1.9,1.9,0,0,0-.79-.17c-.36,0-.6.16-.6.43s.17.36.49.54a1.54,1.54,0,0,1,.92,1.25c0,1-.83,1.62-2,1.61a2.47,2.47,0,0,1-1.25-.32Z" transform="translate(-5.13 -63.37)"/><path class="cls-1" d="M174.13,136l.87-4.62h1.28l-.87,4.62Zm1.66-5.19a.6.6,0,0,1-.6-.65.73.73,0,0,1,.73-.76.61.61,0,0,1,.63.65.73.73,0,0,1-.75.76Z" transform="translate(-5.13 -63.37)"/><path class="cls-1" d="M178.39,136.08a1.68,1.68,0,0,1-1.76-1.81,2.77,2.77,0,0,1,2.56-3,1.68,1.68,0,0,1,1.74,1.82,2.74,2.74,0,0,1-2.53,3Zm.17-1c.68,0,1.06-1.23,1.06-2,0-.4-.15-.79-.6-.79-.7,0-1.08,1.22-1.08,2,0,.48.18.85.61.85Z" transform="translate(-5.13 -63.37)"/><path class="cls-1" d="M181.25,136l.59-3.12c.1-.57.18-1.08.24-1.5h1.12l-.07.71h0a1.79,1.79,0,0,1,1.47-.81c.72,0,1.09.46,1.09,1.19a5.7,5.7,0,0,1-.08.8l-.51,2.73h-1.29l.5-2.65a4.38,4.38,0,0,0,0-.51c0-.29-.1-.5-.4-.5s-.85.51-1,1.48l-.4,2.18Z" transform="translate(-5.13 -63.37)"/></svg>